<?xml version="1.0" standalone="no"?>
<!DOCTYPE svg PUBLIC "-//W3C//DTD SVG 1.1//EN" "http://www.w3.org/Graphics/SVG/1.1/DTD/svg11.dtd">
<svg xmlns="http://www.w3.org/2000/svg">
<metadata>Generated by Fontastic.me</metadata>
<defs>
<font id="untitled-font-1" horiz-adv-x="512">
<font-face font-family="untitled-font-1" units-per-em="512" ascent="480" descent="-32"/>
<missing-glyph horiz-adv-x="512" />

<glyph glyph-name="graph-bar" unicode="&#98;" d="M236 204l-73 0c-4 0-7-4-7-8l0-112c0-4 3-8 7-8l73 0c4 0 8 4 8 8l0 112c0 5-4 8-8 8z m113 232l-73 0c-4 0-8-4-8-8l0-344c0-4 4-8 8-8l73 0c4 0 7 4 7 8l0 344c0 4-3 8-7 8z m113-105l-72 0c-5 0-8-3-8-7l0-240c0-4 3-8 8-8l72 0c4 0 8 4 8 8l0 240c0 4-4 7-8 7z m-340 0l-72 0c-4 0-8-3-8-7l0-240c0-4 4-8 8-8l72 0c5 0 8 4 8 8l0 240c0 4-3 7-8 7z"/>
<glyph glyph-name="bill" unicode="&#97;" d="M512 0z m-128 256l0-256-64 64-64-64-64 64-64-64-64 64-64-64 0 416c0 53 43 96 96 96l288 0c71 0 128-57 128-128 0-71-57-128-128-128z m-64 192l-224 0c-18 0-32-14-32-32l0-256 64-64 64 64 64-64 64 64z m64 0l0-128c35 0 64 29 64 64 0 35-29 64-64 64z m-256-192l128 0 0-32-128 0z m0 64l128 0 0-32-128 0z m0 64l128 0 0-32-128 0z"/>
<glyph glyph-name="briefcase" unicode="&#99;" d="M81 414c-46-1-82-39-81-85l0-244c-1-46 35-84 81-85l57 0 0 414z m140 98c-32-2-58-29-57-61l0-451 186 0 0 451c1 32-24 59-57 61m-2-24c20-1 35-17 35-37l0-37-140 0 0 37c0 20 16 36 35 37m210-74l-57 0 0-414 57 0c46 1 82 39 81 85l0 244c1 46-35 84-81 85z"/>
<glyph glyph-name="employees" unicode="&#100;" d="M512 51l0 103c0 16-19 24-65 40-10 3-21 8-29 11l0 21c13 11 21 27 21 46 8 8 11 22 11 33 0 5 0 13-3 18 0 3-2 3-2 6 8 13 10 29 5 43-8 24-38 32-65 32-21 3-45-8-59-24-8 0-16-3-19-11-5-13-5-29 3-43-3-3-3-5-5-5-3-6-3-14-3-19 0-11 3-24 11-33 0-16 8-35 21-45l0-19-11 0c35-22 41-38 41-51l0-114 137 0c6 0 11 6 11 11z m-216 143c-24 13-48 24-72 35l0 32c5 6 10 11 13 17 3 8 6 16 8 27 0 0 0 2 0 2 0 3 0 6 0 11 0 0 3 3 3 3 3 2 5 8 8 13 0 3 3 6 3 8 0 3 0 6 0 8 0 3 0 3 0 6 0 5-3 10-6 13 0 3-2 6-5 6 0 2 3 5 3 8 0 2 2 8 2 10 0 0 0 3 0 3 0 3 0 6 3 11 0 0 0 3 0 3 0 2 0 5 0 8 0 0 0 2 0 2 0 3 0 6-3 11 0 3-2 6-2 8-3 8-11 16-19 22-6 0-8 2-11 2 0 0-3 0-3 0-2 3-5 3-8 3-3 0-3 0-5 0-3 0-6 0-8 3l-3 3c-5 0-8 0-13 0-3 0-6 0-11 0-8 0-19-3-30-9-3 0-3 0-5-2-3 0-6-3-11-6 0-2-3-2-5-5 0 0 0 0-3-3 0 0 0-2-3-2 0-3-3-6-3-6-2 0-2 0-5 0-3 0-5 0-5 0-3 0-3-2-6-2 0 0-2-3-2-3 0 0-3-3-3-3 0-3-3-3-3-5 0 0 0 0 0-3 0-3 0-3 0-5 0 0 0 0 0-3 0-3 0-3 0-5 0 0 0 0 0-3 0-3 0-3 0-5 0-3 0-6 3-6 3-5 5-13 5-19-2-2-5-5-8-8 0 0 0-3-2-3 0 0 0-2 0-2 0 0 0 0 0-3 0 0 0-3 0-3 0-2 0-5 0-8 0-2 0-5 0-8 0-2 0-5 2-8 3-5 6-11 8-13 0 0 3-3 3-3 0-3 0-5 0-11 0 0 0-2 0-2 0-9 3-17 8-25 3-8 5-13 11-19l0-32c-35-16-105-48-116-70 0-3 0-3 0-5l0-103c0-5 5-11 11-11l331 0 0 114c0 10-21 27-46 40z"/>
<glyph glyph-name="grid" unicode="&#101;" d="M0 495l238 0 0-136-238 0z m274 0l238 0 0-136-238 0z m-274-171l238 0 0-136-238 0z m274 0l238 0 0-136-238 0z m-274-171l238 0 0-136-238 0z m274 0l238 0 0-136-238 0z"/>
<glyph glyph-name="list" unicode="&#102;" d="M128 320l64 0 0 64-64 0z m0-96l64 0 0 64-64 0z m0-96l64 0 0 64-64 0z m96 192l160 0 0 64-160 0z m192 192l-320 0c-53 0-96-43-96-96l0-320c0-53 43-96 96-96l320 0c53 0 96 43 96 96l0 320c0 53-43 96-96 96z m32-416c0-18-14-32-32-32l-320 0c-18 0-32 14-32 32l0 320c0 18 14 32 32 32l320 0c18 0 32-14 32-32z m-224 128l160 0 0 64-160 0z m0-96l160 0 0 64-160 0z"/>
<glyph glyph-name="notification" unicode="&#103;" d="M501 128c-14 0-28 6-38 16-10 11-16 25-15 39l0 94c0 78-47 148-119 178-8 34-38 58-73 57-35 0-65-23-73-57-72-30-119-100-119-178l0-94c1-14-5-28-15-39-10-10-24-16-38-16 0-7 0-14 0-21l490 0c0 7 0 14 0 21z m-183-42l-126 0c-3 134-6 129-9-13 0-40 33-73 73-73 40 0 73 33 73 73-3 142-6 147-9 13z"/>
<glyph glyph-name="hand-shake" unicode="&#104;" d="M133 369l87 67c24 18 56 22 84 12l139-54c9-3 19-5 28-5l23 0c7 0 12-5 12-11 0 0 0 0 0-1l0-170c0-7-5-13-12-13l-30 0c-4 0-9-1-12-4l-7-5c-1-2-4-1-5 0l-162 198c-5 5-12 6-17 3l-75-42c-14-8-32-9-48-2-8 3-13 13-9 22 0 2 2 3 4 5z m-115-174l26 0 18 22c17 20 47 23 67 6 7-6 12-14 15-23 16-4 28-16 33-32 11-4 21-11 27-22 10-1 19-6 26-13 15-16 18-40 7-59l-3-4c0 0 0-1 0-1 12-8 29-5 37 7 4 6 6 13 4 21 0 0 0 0 0 0 0 0 1 0 1 0l2-2c9-9 24-11 35-4 9 7 13 17 11 28 0 0 0 0 0 0 0 0 0 0 0 0l2-2c9-9 24-11 35-4 9 7 13 17 11 28 0 0 0 0 0 0 0 0 1 0 1 0l2-2c8-9 22-10 33-4 12 8 16 24 9 37-1 1-2 3-3 4l-17 20-132 161c-2 2-4 2-6 1l-63-35c-21-11-45-13-67-5-12 4-21 14-26 25-4 13-2 26 5 37 1 3 0 6-3 8-1 0-2 0-3 0l-86 0c-7 0-12-5-12-11l0-171c2-6 7-11 14-11z m92 12c-10 5-22 3-30-7l-18-22c-7-9-6-24 4-31 0 0 0 0 0 0l3-2c7-6 17-7 25-2 0 0 1 0 1-1 0 0 0 0 0-1-1-8 2-17 8-22l2-1c8-6 17-7 25-3 1 0 2 0 2-1 0 0 0 0 0 0-1-8 2-15 8-21l2-1c7-5 16-6 24-2 1 1 2 0 2 0 0 0 0-1 0-1 1-5 4-10 9-14l1-1c10-7 24-6 32 5 0 1 1 2 2 2l4 6c5 10 4 21-5 29-6 6-16 8-25 4 0 0 0 0-1 1 0 0 0 0 0 0 1 12-9 23-21 24-3 0-6 0-9-1-4-1-3 2-3 2 5 12 0 25-12 30-6 2-14 2-20-1-2-1-2 2-2 2 6 10 3 23-8 30z"/>
<glyph glyph-name="settings" unicode="&#105;" d="M209 506l-11-62c-26-8-50-22-70-39l-59 23-49-81 47-42c-3-15-5-30-5-46 0-16 2-32 5-47l-47-41 49-81 59 23c20-18 44-31 70-39l11-62 94 0 11 62c26 8 50 22 70 39l59-23 49 81-47 42c3 14 5 30 5 46 0 17-2 32-5 47l47 42-49 81-59-23c-20 18-44 31-70 39l-11 62-94 0z m47-142c59 0 106-47 106-106 0-58-48-106-106-106-59 0-106 48-106 106 0 59 47 106 106 106z"/>
<glyph glyph-name="calender" unicode="&#106;" d="M416 0l-320 0c-53 0-96 43-96 96l0 320c0 41 26 77 64 90l0-42c0-27 21-48 48-48 27 0 48 21 48 48l0 48 192 0 0-48c0-27 21-48 48-48 27 0 48 21 48 48l0 42c38-13 64-49 64-90l0-320c0-53-43-96-96-96z m32 352l-384 0 0-256c0-18 14-32 32-32l320 0c18 0 32 14 32 32z m-128-160l64 0 0-64-64 0z m0 96l64 0 0-64-64 0z m-96-96l64 0 0-64-64 0z m0 96l64 0 0-64-64 0z m-96-96l64 0 0-64-64 0z m0 96l64 0 0-64-64 0z m272 160c-9 0-16 7-16 16l0 48 32 0 0-48c0-9-7-16-16-16z m-288 0c-9 0-16 7-16 16l0 48 32 0 0-48c0-9-7-16-16-16z"/>
<glyph glyph-name="statistics" unicode="&#107;" d="M416 0l-320 0c-53 0-96 43-96 96l0 320c0 53 43 96 96 96l320 0c53 0 96-43 96-96l0-320c0-53-43-96-96-96z m32 416c0 18-14 32-32 32l-320 0c-18 0-32-14-32-32l0-320c0-18 14-32 32-32l320 0c18 0 32 14 32 32z m-80-288c-20 0-38 13-45 32l-70 0c-8-22-31-35-54-31-23 4-40 24-40 47 0 23 17 43 40 47 23 4 46-9 54-31l70 0c8 23 33 36 56 30 24-5 39-28 37-52-3-24-24-42-48-42z m0 64c-9 0-16-7-16-16 0-9 7-16 16-16 9 0 16 7 16 16 0 9-7 16-16 16z m-64 96c-20 0-38 13-45 32l-70 0c-8-22-31-35-54-31-23 4-39 24-39 47 0 23 16 43 39 47 23 4 46-9 54-31l70 0c9 23 33 36 56 30 24-5 40-28 37-52-3-24-24-42-48-42z m-160 64c-9 0-16-7-16-16 0-9 7-16 16-16 9 0 16 7 16 16 0 9-7 16-16 16z"/>
<glyph glyph-name="share" unicode="&#108;" d="M480 178c3 17 6 34 6 52 0 80-41 153-110 195-4 3-9 1-12-3-3-4-1-9 3-12 63-39 101-106 101-180 0-16-2-31-5-46-4 1-8 1-13 1-34 0-62-27-62-61 0-34 28-62 62-62 34 0 62 28 62 62 0 23-13 44-32 54z m-30-99c-24 0-44 20-44 45 0 24 20 44 44 44 25 0 44-20 44-44 0-25-19-45-44-45z m-113-45c-26-11-53-16-81-16-56 0-111 22-150 62 11 11 18 27 18 44 0 34-28 61-62 61-34 0-62-27-62-61 0-34 28-62 62-62 11 0 21 3 30 8 43-45 102-70 164-70 30 0 60 6 88 17 4 2 6 7 4 12-1 4-7 7-11 5z m-319 90c0 24 19 44 44 44 24 0 44-20 44-44 0-25-20-45-44-45-25 0-44 20-44 45z m17 112c1 0 1 0 1 0 5 0 8 4 9 9 6 89 67 163 152 188 7-26 31-45 59-45 34 0 62 28 62 62 0 34-28 62-62 62-34 0-62-28-62-62-93-26-160-107-167-204 0-5 3-9 8-10z m221 258c24 0 44-19 44-44 0-24-20-44-44-44-24 0-44 20-44 44 0 25 20 44 44 44z"/>
<glyph glyph-name="timesheet" unicode="&#109;" d="M256 512c-141 0-256-115-256-256 0-141 115-256 256-256 141 0 256 115 256 256 0 141-115 256-256 256z m0-448c-106 0-192 86-192 192 0 106 86 192 192 192 106 0 192-86 192-192 0-106-86-192-192-192z m96 224l-64 0 0 64c0 18-14 32-32 32-18 0-32-14-32-32l0-96c0-18 14-32 32-32l96 0c18 0 32 14 32 32 0 18-14 32-32 32z"/>
<glyph glyph-name="user" unicode="&#110;" d="M352 0l-192 0c-53 0-96 43-96 96 11 58 48 108 100 136-23 23-36 55-36 88l0 64c0 71 57 128 128 128 71 0 128-57 128-128l0-64c0-33-13-64-36-88 52-28 89-78 100-136 0-53-43-96-96-96z m-32 320l0 64c0 35-29 64-64 64-35 0-64-29-64-64l0-64c0-35 29-64 64-64 35 0 64 29 64 64z m64-224c-16 57-69 96-128 96-59 0-111-39-128-96 0-18 14-32 32-32l192 0c18 0 32 14 32 32z"/>
<glyph glyph-name="left-arrow" unicode="&#111;" d="M368 67c9-9 9-18 0-25-8-9-17-9-24 0 0 0-201 202-201 202-8 8-8 16 0 25 0 0 201 202 201 202 7 9 16 9 24 0 9-7 9-16 0-25 0 0-183-190-183-190 0 0 183-189 183-189"/>
<glyph glyph-name="hamburger" unicode="&#112;" d="M26 435l460 0 0-71-460 0z m0-307l460 0 0-72-460 0z m0 154l460 0 0-72-460 0z"/>
<glyph glyph-name="sort" unicode="&#113;" d="M128 453l0-307-77 0 103-102 102 102-77 0 0 307z m256-409l0 307 77 0-103 102-102-102 77 0 0-307z"/>
<glyph glyph-name="check" unicode="&#115;" d="M477 350c0-7-2-14-8-19l-206-207-39-39c-6-5-12-8-20-8-7 0-14 3-19 8l-142 142c-6 6-8 12-8 20 0 7 2 14 8 19l38 39c6 5 12 8 20 8 7 0 14-3 19-8l84-84 188 188c5 5 12 8 19 8 8 0 14-3 20-8l38-39c6-6 8-12 8-20z"/>
<glyph glyph-name="search" unicode="&#116;" d="M204 110c-111 0-201 90-201 202 0 111 90 201 201 201 112 0 199-90 199-201 0-115-87-202-199-202z m0 360c-87 0-160-71-160-161 0-87 70-161 160-161 90 0 158 71 158 161 0 87-71 161-158 161z m283-463c-5 0-10 3-13 5l-158 155c-8 9-8 22 0 30 8 9 22 9 30 0l158-155c8-8 8-22 0-30-6-5-11-5-17-5z"/>
<glyph glyph-name="arrow-down" unicode="&#117;" d="M256 118c-5 0-13 2-15 7l-231 231c-10 8-10 23 0 31 10 10 23 10 34 0l215-215 215 215c10 10 23 10 33 0 10-11 10-23 0-34l-231-230c-7-3-15-5-20-5z"/>
<glyph glyph-name="arrow-right" unicode="&#118;" d="M141 3c-5 0-13 2-16 7-10 10-10 23 0 34l215 215-215 212c-10 10-10 23 0 33 8 8 23 8 31-2l231-231c10-10 10-23 0-33l-231-230c-2-3-10-5-15-5z"/>
<glyph glyph-name="plus" unicode="&#119;" d="M256 2c-6 0-11 4-11 11l0 486c0 7 5 11 11 11 6 0 11-4 11-11l0-486c0-7-5-11-11-11z m243 243l-486 0c-7 0-11 5-11 11 0 6 4 11 11 11l486 0c7 0 11-5 11-11 0-6-4-11-11-11z"/>
<glyph glyph-name="leaves" unicode="&#114;" d="M410 486l-26 0 0-51-256 0 0 51-26 0c-14 0-25-11-25-25l0-333c0-14 11-26 25-26l308 0c14 0 25 12 25 26l0 333c0 14-11 25-25 25z m-256-128l25 0 0-25-25 0z m0-76l25 0 0-26-25 0z m25-103l-25 0 0 26 25 0z m179 0l-153 0 0 26 153 0z m0 77l-153 0 0 26 153 0z m0 77l-153 0 0 25 153 0z m0 153c0 15-11 26-25 26l-154 0c-14 0-25-11-25-26l0-25 204 0z"/>
<glyph glyph-name="dashboard" unicode="&#120;" d="M474 0l-167 0c-18 0-32 14-32 32l0 218c0 18 14 32 32 32l167 0c18 0 32-14 32-32l0-218c0-18-14-32-32-32z m0 320l-167 0c-18 0-32 14-32 32l0 128c0 18 14 32 32 32l167 0c18 0 32-14 32-32l0-128c0-18-14-32-32-32z m-269-320l-167 0c-18 0-32 14-32 32l0 128c0 18 14 32 32 32l167 0c18 0 32-14 32-32l0-128c0-18-14-32-32-32z m0 230l-167 0c-18 0-32 14-32 32l0 218c0 18 14 32 32 32l167 0c18 0 32-14 32-32l0-218c0-18-14-32-32-32z"/>
<glyph glyph-name="payroll" unicode="&#122;" d="M480 64l-448 0c-18 0-32 14-32 32l0 256 512 0 0-256c0-18-14-32-32-32z m-200 213c-12 7-25 11-40 11-44 0-80-36-80-80 0-44 36-80 80-80 15 0 28 4 40 11-15 19-24 43-24 69 0 26 9 50 24 69z m88 11c-44 0-80-36-80-80 0-44 36-80 80-80 44 0 80 36 80 80 0 44-36 80-80 80z m-368 128c0 18 14 32 32 32l448 0c18 0 32-14 32-32l0-32-512 0z"/>
<glyph glyph-name="return" unicode="&#65;" d="M408 375l-46 0c-10 0-19-8-19-18 0-10 9-18 19-18l46 0c22 0 41-18 41-42 0-23-18-41-41-41l-313 0 59 52c7 6 8 18 2 25-6 8-18 9-25 2l-96-84c-3-4-6-8-6-14 0-5 2-10 6-13l96-84c3-2 8-4 11-4 6 0 10 2 14 6 6 8 6 19-2 26l-59 52 313 0c42 0 78 35 78 78 0 44-36 77-78 77z"/>
<glyph glyph-name="chat" unicode="&#66;" d="M444 501c28 0 51-24 51-52l0-259c0-29-23-52-51-52l-44 0 11-116c1-7-4-13-11-14-4 0-8 1-11 3l-126 126-195 0c-29 0-52 23-52 52l0 259c0 29 23 52 52 52z m0-26l-376 0c-15 0-26-11-26-26l0-259c0-15 11-26 26-26l201 0c3 0 6-2 9-4l104-104-10 93c0 8 5 14 12 15 1 0 1 0 1 0l59 0c15 0 26 11 26 26l0 259c0 15-11 26-26 26z m-46-59c7 0 13-5 13-12 0-8-6-13-13-13l-285 0c-7 0-13 5-13 13 0 7 6 12 13 12z m0-84c7 0 13-6 13-13 0-7-6-13-13-13l-285 0c-7 0-13 6-13 13 0 7 6 13 13 13z m0-84c7 0 13-6 13-13 0-7-6-13-13-13l-285 0c-7 0-13 6-13 13 0 7 6 13 13 13z"/>
<glyph glyph-name="attendence" unicode="&#121;" d="M331 107c0-1-1-2-2-2l-71 0 0 317c0 7-5 14-12 17l-112 43 195 0c1 0 2-1 2-2l0-82 30 0 0 100c0 8-6 15-15 15l-293 0c-1 0-1 0-1 0-1 0-1 0-1 0 0 0-1 0-1 0-1 0-1 0-1 0 0 0-1 0-1 0 0 0-1-1-1-1 0 0 0-1 0-1-1 0-1 0-1-1 0 0-1 0-1 0-1-1-1-1-1-1 0 0 0-1 0-1 0-1-1-1-1-1 0-1 0-1 0-1 0 0 0 0 0-1 0 0 0 0 0-1 0 0 0-1 0-1l0-418c0 0 0-1 0-1 0 0 0-1 0-2 0 0 0 0 0-1 0 0 0 0 1-1 0 0 0 0 0-1 0 0 1 0 1-1 0 0 1-1 1-1 0 0 0 0 0 0 0 0 1-1 1-1 0 0 0 0 1 0 0 0 0 0 0-1 1 0 1 0 1 0 0 0 144-56 193-74 8-4 16 1 16 10l0 63 89 0c8 0 15 6 15 15l0 100-30 0z m130 222l-78 0 0 30c0 3-1 6-3 8-4 4-11 4-15 0l-63-63c-3-2-4-7-4-11 0-5 1-9 4-11l63-63c4-4 11-4 15 0 2 2 3 5 3 8l0 30 78 0c4 0 8 4 8 9l0 56c0 4-3 7-8 7z"/>
<glyph glyph-name="date-time" unicode="&#67;" d="M16 511c-10 0-16-7-16-16l0-384c0-10 6-16 16-16l182 0c-3 9-6 22-6 32l-160 0 0 288 352 0 0-96c10 0 22-3 32-7l0 183c0 9-6 16-16 16z m16-32l352 0 0-32-352 0z m32-96l0-32 32 0 0 32z m64 0l0-32 32 0 0 32z m64 0l0-32 32 0 0 32z m64 0l0-32 32 0 0 32z m64 0l0-32 32 0 0 32z m-256-64l0-32 32 0 0 32z m64 0l0-32 32 0 0 32z m64 0l0-32 32 0 0 32z m64 0l0-32 16 0c6 3 10 6 16 9l0 23z m112-32c-80 0-144-64-144-144 0-80 64-144 144-144 80 0 144 64 144 144 0 80-64 144-144 144z m0-26c64 0 118-51 118-118 0-64-51-119-118-119-67 0-118 52-118 119 0 67 54 118 118 118z m-304-6l0-32 32 0 0 32z m64 0l0-32 32 0 0 32z m64 0l0-32 22 0c4 6 7 9 10 16l0 16z m176-32c-10 0-16-7-16-16l0-64c0-10 6-16 16-16l58 0c9 0 16 6 16 16 0 9-7 16-16 16l-42 0 0 48c0 9-6 16-16 16z m-304-32l0-32 32 0 0 32z m64 0l0-32 32 0 0 32z"/>
</font>
</defs>
</svg>
